<?xml version="1.0" encoding="UTF-8"?>
<svg id="Layer_2" data-name="Layer 2" xmlns="http://www.w3.org/2000/svg" viewBox="0 0 209.63 50">
  <defs>
    <style>
      .cls-1 {
        fill: #281411;
        stroke-width: 0px;
      }

      .cls-2 {
        fill: #fef5ea;
      }

      .cls-2, .cls-3 {
        stroke: #281411;
      }

      .cls-3 {
        fill: none;
        stroke-width: 3px;
      }
    </style>
  </defs>
  <g id="Layer_1-2" data-name="Layer 1">
    <rect class="cls-2" x=".5" y=".5" width="208.63" height="49"/>
    <path class="cls-3" d="M160.62,21.05l13.84,11.84,13.39-11.84"/>
    <path class="cls-1" d="M22.07,34.21v-11.88h2.25v11.88h-2.25ZM30.09,34.21v-7.17c0-.88-.27-1.58-.83-2.08-.53-.52-1.21-.77-2.02-.77-.55,0-1.04.12-1.48.35-.43.23-.78.56-1.05.98-.27.42-.4.92-.4,1.5l-.93-.45c0-.9.19-1.68.58-2.35.4-.67.94-1.18,1.62-1.55.68-.38,1.45-.58,2.3-.58s1.58.18,2.25.55c.68.37,1.22.88,1.6,1.55.4.67.6,1.46.6,2.38v7.65h-2.25ZM38.12,34.21v-7.17c0-.88-.28-1.58-.83-2.08-.53-.52-1.2-.77-2-.77-.55,0-1.05.12-1.5.35-.43.23-.78.56-1.05.98-.27.42-.4.92-.4,1.5l-1.27-.45c.05-.92.29-1.7.73-2.35.45-.67,1.02-1.18,1.73-1.55.7-.38,1.47-.58,2.3-.58s1.64.18,2.33.55c.68.37,1.22.88,1.62,1.55.42.67.62,1.47.62,2.4v7.62h-2.28ZM48.51,34.46c-1.08,0-2.07-.27-2.95-.8-.88-.55-1.58-1.29-2.1-2.23-.5-.93-.75-1.98-.75-3.15s.25-2.22.75-3.15c.52-.93,1.21-1.68,2.08-2.23.88-.55,1.88-.83,2.97-.83.9,0,1.7.19,2.4.58.72.37,1.29.88,1.72,1.55.43.65.67,1.41.73,2.28v3.57c-.05.85-.29,1.61-.73,2.27-.42.67-.98,1.19-1.7,1.58-.7.37-1.51.55-2.42.55ZM48.88,32.34c1.12,0,2.02-.38,2.7-1.12.68-.77,1.03-1.74,1.03-2.92,0-.82-.16-1.52-.48-2.12-.3-.62-.73-1.09-1.3-1.42-.57-.35-1.22-.53-1.97-.53s-1.42.18-2,.53c-.57.35-1.02.83-1.35,1.45-.32.6-.47,1.29-.47,2.08s.16,1.51.47,2.12c.33.6.79,1.07,1.38,1.42.58.35,1.25.52,2,.52ZM52.46,34.21v-3.2l.42-2.9-.42-2.88v-2.9h2.28v11.88h-2.28ZM59.78,34.21v-16.85h2.25v16.85h-2.25ZM56.86,24.39v-2.05h8.1v2.05h-8.1ZM72.29,34.46c-1.18,0-2.25-.27-3.2-.8-.95-.55-1.7-1.29-2.25-2.23-.55-.93-.83-1.99-.83-3.17s.27-2.22.8-3.15c.55-.93,1.28-1.67,2.2-2.2.93-.55,1.98-.83,3.12-.83s2.07.25,2.9.75c.85.5,1.51,1.19,1.97,2.08.48.88.73,1.88.73,3,0,.17,0,.35-.03.55-.02.18-.05.4-.1.65h-10.03v-1.88h8.82l-.82.72c0-.8-.14-1.47-.43-2.02-.28-.57-.68-1-1.2-1.3-.52-.32-1.14-.48-1.88-.48s-1.44.17-2.03.5c-.58.33-1.03.8-1.35,1.4-.32.6-.47,1.31-.47,2.12s.17,1.57.5,2.2c.33.62.81,1.1,1.42,1.45.62.33,1.33.5,2.12.5.67,0,1.28-.12,1.83-.35.57-.23,1.05-.58,1.45-1.05l1.45,1.48c-.57.67-1.27,1.17-2.1,1.53-.82.35-1.69.52-2.62.52ZM80.2,34.21v-11.88h2.25v11.88h-2.25ZM82.45,27.44l-.85-.38c0-1.52.35-2.73,1.05-3.62s1.71-1.35,3.03-1.35c.6,0,1.14.11,1.62.33.48.2.93.54,1.35,1.02l-1.47,1.52c-.25-.27-.53-.46-.83-.57-.3-.12-.65-.18-1.05-.18-.83,0-1.52.27-2.05.8-.53.53-.8,1.34-.8,2.42ZM90.26,34.21v-11.88h2.25v11.88h-2.25ZM91.38,19.96c-.42,0-.76-.13-1.03-.4-.27-.28-.4-.63-.4-1.05s.13-.73.4-1c.27-.28.61-.43,1.03-.43s.76.14,1.03.43c.27.27.4.6.4,1s-.13.77-.4,1.05c-.27.27-.61.4-1.03.4ZM100.87,34.46c-1.08,0-2.07-.27-2.95-.8-.88-.55-1.58-1.29-2.1-2.23-.5-.93-.75-1.98-.75-3.15s.25-2.22.75-3.15c.52-.93,1.21-1.68,2.07-2.23.88-.55,1.88-.83,2.97-.83.9,0,1.7.19,2.4.58.72.37,1.29.88,1.72,1.55.43.65.67,1.41.72,2.28v3.57c-.05.85-.29,1.61-.72,2.27-.42.67-.98,1.19-1.7,1.58-.7.37-1.51.55-2.42.55ZM101.25,32.34c1.12,0,2.02-.38,2.7-1.12.68-.77,1.03-1.74,1.03-2.92,0-.82-.16-1.52-.47-2.12-.3-.62-.73-1.09-1.3-1.42-.57-.35-1.22-.53-1.97-.53s-1.42.18-2,.53c-.57.35-1.02.83-1.35,1.45-.32.6-.47,1.29-.47,2.08s.16,1.51.47,2.12c.33.6.79,1.07,1.38,1.42.58.35,1.25.52,2,.52ZM104.82,34.21v-3.2l.43-2.9-.43-2.88v-2.9h2.28v11.88h-2.28ZM110.37,34.21v-17.85h2.25v17.85h-2.25ZM121.42,34.46c-1.18,0-2.25-.27-3.2-.8-.95-.55-1.7-1.29-2.25-2.23-.55-.93-.83-1.99-.83-3.17s.27-2.22.8-3.15c.55-.93,1.28-1.67,2.2-2.2.93-.55,1.97-.83,3.12-.83s2.07.25,2.9.75c.85.5,1.51,1.19,1.97,2.08.48.88.72,1.88.72,3,0,.17,0,.35-.02.55-.02.18-.05.4-.1.65h-10.02v-1.88h8.82l-.82.72c0-.8-.14-1.47-.43-2.02-.28-.57-.68-1-1.2-1.3-.52-.32-1.14-.48-1.88-.48s-1.44.17-2.03.5c-.58.33-1.03.8-1.35,1.4-.32.6-.48,1.31-.48,2.12s.17,1.57.5,2.2c.33.62.81,1.1,1.43,1.45.62.33,1.32.5,2.12.5.67,0,1.28-.12,1.82-.35.57-.23,1.05-.58,1.45-1.05l1.45,1.48c-.57.67-1.27,1.17-2.1,1.53-.82.35-1.69.52-2.62.52Z"/>
  </g>
</svg>