<?xml version="1.0" encoding="UTF-8"?>
<svg id="insta_icon" data-name="Layer 2" xmlns="http://www.w3.org/2000/svg" xmlns:xlink="http://www.w3.org/1999/xlink" viewBox="0 0 46 46">
  <defs>
    <style>
      .fill {
        fill: #adb3ea;
      }

      .fill, .cls-2 {
        stroke-width: 0px;
      }

      .cls-3 {
        clip-path: url(#clippath);
      }

      .cls-2 {
        fill: none;
      }
    </style>
    <clipPath id="clippath">
      <rect class="cls-2" width="46" height="46"/>
    </clipPath>
  </defs>
  <g id="Layer_1-2" data-name="Layer 1">
    <g class="cls-3">
      <path class="fill" d="M29.21,11.14h-12.43c-3.11,0-5.65,2.53-5.65,5.65v12.43c0,3.11,2.53,5.65,5.65,5.65h12.43c3.11,0,5.65-2.53,5.65-5.65v-12.43c0-3.11-2.53-5.65-5.65-5.65ZM23,29.94c-4.87,0-7.16-2.07-7.16-6.94s2.29-7.58,7.16-7.58,7.12,2.71,7.12,7.58-3.05,6.94-7.12,6.94ZM30.67,16.49c-.95,0-1.45-.57-1.45-1.52s.5-1.54,1.45-1.54,1.5.59,1.5,1.54-.55,1.52-1.5,1.52ZM23,18.37c-2.68,0-4.21,1.95-4.21,4.63s1.53,3.99,4.21,3.99,4.18-1.3,4.18-3.99-1.49-4.63-4.18-4.63ZM23,0C10.3,0,0,10.3,0,23s10.3,23,23,23,23-10.3,23-23S35.7,0,23,0ZM38.29,29.21c0,5.65-3.43,9.11-9.08,9.11h-12.43c-5.65,0-9.34-3.47-9.34-9.11v-12.43c0-5.65,3.69-9.08,9.34-9.08h12.43c5.65,0,9.08,3.43,9.08,9.08v12.43Z"/>
    </g>
  </g>
</svg>