<?xml version="1.0" encoding="UTF-8"?>
<svg id="Layer_2" data-name="Layer 2" xmlns="http://www.w3.org/2000/svg" viewBox="0 0 709.02 676.15">
  <defs>
    <style>
      .cls-1 {
        fill: #c55a6d;
      }

      .cls-1, .cls-2 {
        stroke-width: 0px;
      }

      .cls-2 {
        fill: #fff;
      }
    </style>
  </defs>
  <g id="Layer_1-2" data-name="Layer 1">
    <g>
      <polyline class="cls-1" points="0 675.98 709.02 676.15 709.02 0"/>
      <g>
        <path class="cls-2" d="M358.01,476.67v-26.3h3.56v26.3h-3.56ZM360.44,453.63v-3.26h14.36v3.26h-14.36ZM360.44,465.11v-3.26h13.72v3.26h-13.72Z"/>
        <path class="cls-2" d="M386.33,477.05c-1.74,0-3.32-.42-4.74-1.25-1.42-.83-2.54-1.96-3.37-3.39-.83-1.43-1.25-3.03-1.25-4.79s.42-3.32,1.25-4.72,1.96-2.52,3.37-3.35,2.99-1.25,4.74-1.25,3.37.41,4.79,1.23c1.43.82,2.56,1.94,3.39,3.35.83,1.42,1.25,2.99,1.25,4.74s-.42,3.37-1.25,4.79c-.83,1.43-1.96,2.56-3.39,3.39-1.43.83-3.03,1.25-4.79,1.25ZM386.33,473.75c1.16,0,2.18-.27,3.07-.8.88-.53,1.58-1.26,2.08-2.18.5-.92.76-1.98.76-3.16s-.26-2.2-.78-3.11c-.52-.91-1.21-1.62-2.08-2.14-.87-.52-1.89-.78-3.05-.78s-2.11.26-2.99.78c-.88.52-1.58,1.23-2.08,2.14-.51.91-.76,1.95-.76,3.11s.25,2.24.76,3.16c.5.92,1.2,1.65,2.08,2.18.88.53,1.88.8,2.99.8Z"/>
        <path class="cls-2" d="M399.55,476.67v-18h3.41v18h-3.41ZM402.96,466.44l-1.29-.61c0-2.3.53-4.13,1.59-5.5,1.06-1.36,2.59-2.05,4.58-2.05.91,0,1.73.16,2.46.47.73.32,1.42.84,2.05,1.57l-2.24,2.31c-.38-.4-.8-.7-1.25-.87-.45-.18-.99-.27-1.59-.27-1.26,0-2.3.41-3.11,1.21-.81.81-1.21,2.05-1.21,3.71Z"/>
        <path class="cls-2" d="M421.84,477.05c-1.67,0-3.16-.41-4.49-1.23-1.33-.82-2.38-1.94-3.15-3.35-.77-1.41-1.16-3.01-1.16-4.78s.39-3.36,1.16-4.78c.77-1.41,1.82-2.54,3.15-3.37,1.33-.83,2.82-1.25,4.49-1.25,1.36,0,2.58.28,3.66.85s1.94,1.35,2.6,2.35c.66,1,1.02,2.15,1.1,3.47v5.42c-.08,1.29-.44,2.44-1.08,3.45s-1.51,1.8-2.6,2.37c-1.09.57-2.31.85-3.68.85ZM422.41,473.83c1.69,0,3.06-.58,4.09-1.72,1.04-1.15,1.55-2.62,1.55-4.42,0-1.21-.24-2.29-.72-3.22-.48-.93-1.14-1.66-1.99-2.18-.85-.52-1.84-.78-2.97-.78s-2.14.27-3.01.8c-.87.53-1.55,1.26-2.05,2.18-.49.92-.74,1.98-.74,3.17s.25,2.28.74,3.2c.49.92,1.18,1.65,2.07,2.18.88.53,1.89.8,3.03.8ZM422.82,456.51c-.88,0-1.67-.2-2.37-.61-.7-.4-1.24-.94-1.63-1.61-.39-.67-.59-1.43-.59-2.29s.2-1.59.59-2.27c.39-.68.93-1.22,1.63-1.61.69-.39,1.48-.59,2.37-.59s1.62.2,2.29.59c.67.39,1.2.93,1.59,1.61.39.68.59,1.44.59,2.27s-.2,1.63-.59,2.31c-.39.68-.92,1.22-1.59,1.61-.67.39-1.43.59-2.29.59ZM422.82,454.05c.53,0,.99-.2,1.36-.59.38-.39.57-.88.57-1.46s-.19-1.06-.57-1.44-.83-.57-1.36-.57c-.61,0-1.09.2-1.46.59s-.55.87-.55,1.42.18,1.07.55,1.46c.37.39.85.59,1.46.59ZM427.83,476.67v-4.85l.64-4.4-.64-4.36v-4.4h3.45v18h-3.45Z"/>
        <path class="cls-2" d="M436.24,476.67v-18h3.41v18h-3.41ZM439.65,466.44l-1.29-.61c0-2.3.53-4.13,1.59-5.5s2.59-2.05,4.59-2.05c.91,0,1.73.16,2.46.47.73.32,1.41.84,2.05,1.57l-2.24,2.31c-.38-.4-.8-.7-1.25-.87s-.99-.27-1.59-.27c-1.26,0-2.3.41-3.11,1.21-.81.81-1.21,2.05-1.21,3.71Z"/>
        <path class="cls-2" d="M456.78,477.05c-1.01,0-1.97-.13-2.88-.4-.91-.27-1.74-.64-2.48-1.14-.75-.49-1.4-1.08-1.95-1.76l2.2-2.2c.66.81,1.41,1.41,2.27,1.8.86.39,1.82.59,2.88.59s1.88-.18,2.46-.55c.58-.37.87-.88.87-1.54s-.23-1.17-.7-1.53c-.47-.37-1.07-.67-1.8-.91-.73-.24-1.51-.47-2.33-.7-.82-.23-1.6-.53-2.33-.91-.73-.38-1.33-.9-1.8-1.57-.47-.67-.7-1.55-.7-2.63s.26-2.03.78-2.82,1.26-1.41,2.22-1.84c.96-.43,2.11-.64,3.45-.64,1.42,0,2.67.25,3.77.74,1.1.49,2,1.23,2.71,2.22l-2.2,2.2c-.53-.66-1.16-1.16-1.9-1.52-.73-.35-1.57-.53-2.5-.53-.99,0-1.74.18-2.25.53-.52.35-.78.82-.78,1.4s.23,1.07.68,1.4c.45.33,1.05.61,1.8.83s1.52.46,2.33.7c.81.24,1.58.56,2.31.97.73.4,1.33.95,1.8,1.63.47.68.7,1.58.7,2.69,0,1.69-.6,3.03-1.8,4.02s-2.81,1.48-4.83,1.48Z"/>
        <path class="cls-2" d="M467.24,476.67v-18h3.41v18h-3.41ZM479.41,476.67v-10.88c0-1.34-.41-2.39-1.23-3.17-.82-.77-1.85-1.16-3.09-1.16-.83,0-1.58.18-2.24.53-.66.35-1.19.85-1.59,1.48s-.61,1.4-.61,2.31l-1.4-.72c0-1.37.3-2.55.89-3.56.59-1.01,1.41-1.8,2.44-2.37s2.2-.85,3.49-.85,2.41.28,3.43.83c1.02.56,1.83,1.34,2.43,2.35s.89,2.21.89,3.6v11.6h-3.41ZM491.57,476.67v-10.88c0-1.34-.41-2.39-1.23-3.17-.82-.77-1.84-1.16-3.05-1.16-.83,0-1.58.18-2.25.53-.67.35-1.21.85-1.61,1.48-.4.63-.61,1.4-.61,2.31l-1.93-.72c.08-1.39.45-2.58,1.12-3.58.67-1,1.53-1.78,2.6-2.35s2.22-.85,3.49-.85,2.49.28,3.53.83c1.04.56,1.86,1.34,2.48,2.35.62,1.01.93,2.22.93,3.64v11.56h-3.45Z"/>
        <path class="cls-2" d="M507.3,477.05c-1.67,0-3.17-.41-4.49-1.23-1.33-.82-2.38-1.94-3.15-3.35-.77-1.41-1.16-3.01-1.16-4.78s.38-3.36,1.16-4.78c.77-1.41,1.82-2.54,3.15-3.37,1.33-.83,2.82-1.25,4.49-1.25,1.36,0,2.58.28,3.66.85,1.07.57,1.94,1.35,2.6,2.35s1.02,2.15,1.1,3.47v5.42c-.08,1.29-.44,2.44-1.08,3.45-.64,1.01-1.51,1.8-2.6,2.37s-2.31.85-3.68.85ZM507.87,473.83c1.69,0,3.06-.58,4.09-1.72s1.55-2.62,1.55-4.42c0-1.21-.24-2.29-.72-3.22-.48-.93-1.14-1.66-1.99-2.18-.85-.52-1.84-.78-2.98-.78s-2.14.27-3.01.8c-.87.53-1.55,1.26-2.05,2.18-.49.92-.74,1.98-.74,3.17s.25,2.28.74,3.2c.49.92,1.18,1.65,2.07,2.18.88.53,1.9.8,3.03.8ZM513.29,476.67v-4.85l.64-4.4-.64-4.36v-4.4h3.45v18h-3.45Z"/>
        <path class="cls-2" d="M521.7,476.67v-18h3.41v18h-3.41ZM525.11,466.44l-1.29-.61c0-2.3.53-4.13,1.59-5.5s2.59-2.05,4.59-2.05c.91,0,1.73.16,2.46.47.73.32,1.41.84,2.05,1.57l-2.24,2.31c-.38-.4-.8-.7-1.25-.87s-.99-.27-1.59-.27c-1.26,0-2.3.41-3.11,1.21-.81.81-1.21,2.05-1.21,3.71Z"/>
        <path class="cls-2" d="M536.9,476.67v-27.06h3.41v27.06h-3.41ZM548.42,476.67l-8.41-9.21,8.3-8.79h4.17l-9.29,9.7.15-1.97,9.47,10.27h-4.4Z"/>
        <path class="cls-2" d="M563.09,477.05c-1.82,0-3.44-.41-4.87-1.23-1.43-.82-2.56-1.94-3.39-3.35-.83-1.41-1.25-3.02-1.25-4.81s.41-3.36,1.23-4.78,1.93-2.53,3.34-3.35,2.97-1.23,4.72-1.23c1.64,0,3.11.38,4.4,1.14,1.29.76,2.29,1.81,3.01,3.15.72,1.34,1.08,2.87,1.08,4.59,0,.25-.01.52-.04.81-.03.29-.08.61-.15.97h-15.2v-2.84h13.38l-1.25,1.1c0-1.21-.21-2.24-.64-3.09s-1.04-1.5-1.82-1.97c-.78-.47-1.73-.7-2.84-.7s-2.19.25-3.07.76c-.88.51-1.57,1.21-2.05,2.12-.48.91-.72,1.98-.72,3.22s.25,2.37.76,3.32,1.23,1.68,2.16,2.2c.93.52,2.01.78,3.22.78,1.01,0,1.94-.18,2.79-.53.85-.35,1.57-.88,2.18-1.59l2.2,2.24c-.88,1.01-1.95,1.78-3.18,2.31-1.24.53-2.56.8-3.98.8Z"/>
        <path class="cls-2" d="M582.64,477.05c-1.64,0-3.12-.41-4.43-1.23-1.31-.82-2.36-1.94-3.13-3.35-.77-1.41-1.16-3.01-1.16-4.78s.38-3.36,1.16-4.78c.77-1.41,1.81-2.54,3.13-3.37s2.79-1.25,4.43-1.25c1.36,0,2.59.28,3.68.85,1.09.57,1.96,1.35,2.63,2.35.67,1,1.04,2.15,1.12,3.47v5.42c-.08,1.29-.44,2.44-1.1,3.45s-1.53,1.8-2.62,2.37c-1.09.57-2.32.85-3.71.85ZM583.21,473.83c1.14,0,2.13-.27,2.99-.8.86-.53,1.53-1.26,2.01-2.18.48-.92.72-1.98.72-3.17s-.24-2.28-.72-3.2c-.48-.92-1.15-1.65-2.01-2.18-.86-.53-1.86-.8-2.99-.8s-2.13.26-2.99.78c-.86.52-1.53,1.24-2.03,2.16-.49.92-.74,1.99-.74,3.2s.25,2.29.74,3.22c.49.94,1.17,1.66,2.05,2.18.87.52,1.86.78,2.97.78ZM592.16,476.67h-3.45v-4.85l.64-4.4-.64-4.36v-13.46h3.45v27.06Z"/>
      </g>
    </g>
  </g>
</svg>