<?xml version="1.0" encoding="UTF-8"?>
<svg id="Layer_2" data-name="Layer 2" xmlns="http://www.w3.org/2000/svg" viewBox="0 0 709.02 676.15">
  <defs>
    <style>
      .cls-1 {
        fill: #e7b7b8;
      }

      .cls-1, .cls-2 {
        stroke-width: 0px;
      }

      .cls-2 {
        fill: #fff;
      }
    </style>
  </defs>
  <g id="Layer_1-2" data-name="Layer 1">
    <g>
      <polygon class="cls-1" points="0 0 0 676.15 709.02 .17 0 0"/>
      <g>
        <path class="cls-2" d="M133.97,225.67c-1.52,0-2.85-.3-4-.89-1.15-.59-2.1-1.4-2.86-2.41l2.54-2.31c.48.71,1.08,1.25,1.8,1.63.72.38,1.52.57,2.41.57s1.67-.19,2.35-.57c.68-.38,1.22-.94,1.61-1.69.39-.75.59-1.66.59-2.75v-18.27h3.56v18.08c0,1.74-.35,3.26-1.04,4.55-.7,1.29-1.64,2.29-2.84,2.99-1.2.71-2.57,1.06-4.11,1.06Z"/>
        <path class="cls-2" d="M154.52,225.6c-1.49,0-2.82-.32-4-.97-1.17-.64-2.09-1.56-2.75-2.75-.66-1.19-.99-2.56-.99-4.13v-10.46h3.41v10.31c0,.99.17,1.84.51,2.56.34.72.84,1.27,1.5,1.65.66.38,1.43.57,2.31.57,1.34,0,2.39-.42,3.15-1.27.76-.85,1.14-2.01,1.14-3.51v-10.31h3.41v10.46c0,1.57-.33,2.94-.99,4.13-.66,1.19-1.57,2.1-2.73,2.75-1.16.64-2.49.97-3.98.97Z"/>
        <path class="cls-2" d="M166.8,225.3v-27.06h3.41v27.06h-3.41Z"/>
        <path class="cls-2" d="M183.55,225.67c-1.82,0-3.44-.41-4.87-1.23-1.43-.82-2.56-1.94-3.39-3.35-.83-1.41-1.25-3.02-1.25-4.81s.41-3.36,1.23-4.78c.82-1.42,1.93-2.53,3.34-3.35,1.4-.82,2.98-1.23,4.72-1.23,1.64,0,3.11.38,4.4,1.14,1.29.76,2.29,1.81,3.01,3.15.72,1.34,1.08,2.87,1.08,4.59,0,.25-.01.52-.04.81-.03.29-.08.61-.15.97h-15.2v-2.84h13.38l-1.25,1.1c0-1.21-.21-2.24-.64-3.09-.43-.85-1.04-1.5-1.82-1.97-.78-.47-1.73-.7-2.84-.7s-2.19.25-3.07.76c-.88.51-1.57,1.21-2.05,2.12-.48.91-.72,1.98-.72,3.22s.25,2.37.76,3.32c.51.95,1.23,1.68,2.16,2.2.93.52,2.01.78,3.22.78,1.01,0,1.94-.18,2.79-.53.85-.35,1.57-.88,2.18-1.59l2.2,2.24c-.88,1.01-1.95,1.78-3.18,2.31-1.24.53-2.56.8-3.98.8Z"/>
        <path class="cls-2" d="M195.52,225.3v-18h3.41v18h-3.41ZM207.69,225.3v-10.88c0-1.34-.41-2.39-1.23-3.16-.82-.77-1.85-1.16-3.09-1.16-.83,0-1.58.18-2.24.53-.66.35-1.19.85-1.59,1.48-.4.63-.61,1.4-.61,2.31l-1.4-.72c0-1.36.3-2.55.89-3.56.59-1.01,1.41-1.8,2.44-2.37,1.04-.57,2.2-.85,3.49-.85s2.41.28,3.43.83c1.02.56,1.83,1.34,2.43,2.35.59,1.01.89,2.21.89,3.6v11.6h-3.41ZM219.85,225.3v-10.88c0-1.34-.41-2.39-1.23-3.16-.82-.77-1.84-1.16-3.05-1.16-.83,0-1.59.18-2.25.53-.67.35-1.21.85-1.61,1.48-.4.63-.61,1.4-.61,2.31l-1.93-.72c.08-1.39.45-2.58,1.12-3.58.67-1,1.53-1.78,2.6-2.35,1.06-.57,2.22-.85,3.49-.85s2.49.28,3.52.83c1.04.56,1.86,1.34,2.48,2.35.62,1.01.93,2.22.93,3.64v11.56h-3.45Z"/>
        <path class="cls-2" d="M235.58,225.67c-1.67,0-3.16-.41-4.49-1.23-1.33-.82-2.38-1.94-3.15-3.35-.77-1.41-1.16-3.01-1.16-4.78s.39-3.36,1.16-4.78c.77-1.41,1.82-2.54,3.15-3.37s2.82-1.25,4.49-1.25c1.36,0,2.58.28,3.66.85,1.07.57,1.94,1.35,2.6,2.35.66,1,1.02,2.15,1.1,3.47v5.42c-.08,1.29-.44,2.44-1.08,3.45-.64,1.01-1.51,1.8-2.6,2.37-1.09.57-2.31.85-3.68.85ZM236.15,222.45c1.69,0,3.06-.57,4.09-1.72,1.04-1.15,1.55-2.62,1.55-4.42,0-1.21-.24-2.29-.72-3.22-.48-.93-1.14-1.66-1.99-2.18-.85-.52-1.84-.78-2.98-.78s-2.14.27-3.01.8c-.87.53-1.55,1.26-2.05,2.18-.49.92-.74,1.98-.74,3.17s.25,2.28.74,3.2c.49.92,1.18,1.65,2.07,2.18.88.53,1.9.8,3.03.8ZM241.57,225.3v-4.85l.64-4.4-.64-4.36v-4.4h3.45v18h-3.45Z"/>
        <path class="cls-2" d="M249.98,225.3v-18h3.41v18h-3.41ZM253.4,215.06l-1.29-.61c0-2.3.53-4.13,1.59-5.5,1.06-1.36,2.59-2.05,4.59-2.05.91,0,1.73.16,2.46.47.73.32,1.41.84,2.05,1.57l-2.24,2.31c-.38-.4-.8-.69-1.25-.87-.45-.18-.99-.27-1.59-.27-1.26,0-2.3.4-3.11,1.21-.81.81-1.21,2.05-1.21,3.71Z"/>
        <path class="cls-2" d="M265.18,225.3v-27.06h3.41v27.06h-3.41ZM276.7,225.3l-8.41-9.21,8.3-8.79h4.17l-9.29,9.7.15-1.97,9.48,10.27h-4.4Z"/>
        <path class="cls-2" d="M291.37,225.67c-1.82,0-3.44-.41-4.87-1.23-1.43-.82-2.56-1.94-3.39-3.35-.83-1.41-1.25-3.02-1.25-4.81s.41-3.36,1.23-4.78c.82-1.42,1.93-2.53,3.34-3.35,1.4-.82,2.98-1.23,4.72-1.23,1.64,0,3.11.38,4.4,1.14,1.29.76,2.29,1.81,3.01,3.15.72,1.34,1.08,2.87,1.08,4.59,0,.25-.01.52-.04.81-.03.29-.08.61-.15.97h-15.2v-2.84h13.38l-1.25,1.1c0-1.21-.21-2.24-.64-3.09-.43-.85-1.04-1.5-1.82-1.97-.78-.47-1.73-.7-2.84-.7s-2.19.25-3.07.76c-.88.51-1.57,1.21-2.05,2.12-.48.91-.72,1.98-.72,3.22s.25,2.37.76,3.32c.51.95,1.23,1.68,2.16,2.2.93.52,2.01.78,3.22.78,1.01,0,1.94-.18,2.79-.53.85-.35,1.57-.88,2.18-1.59l2.2,2.24c-.88,1.01-1.95,1.78-3.18,2.31-1.24.53-2.56.8-3.98.8Z"/>
        <path class="cls-2" d="M310.93,225.67c-1.64,0-3.12-.41-4.43-1.23-1.31-.82-2.36-1.94-3.13-3.35-.77-1.41-1.16-3.01-1.16-4.78s.39-3.36,1.16-4.78c.77-1.41,1.81-2.54,3.13-3.37,1.31-.83,2.79-1.25,4.43-1.25,1.36,0,2.59.28,3.68.85,1.09.57,1.96,1.35,2.63,2.35s1.04,2.15,1.12,3.47v5.42c-.08,1.29-.44,2.44-1.1,3.45-.66,1.01-1.53,1.8-2.62,2.37-1.09.57-2.32.85-3.71.85ZM311.5,222.45c1.14,0,2.13-.27,2.99-.8.86-.53,1.53-1.26,2.01-2.18.48-.92.72-1.98.72-3.16s-.24-2.28-.72-3.2c-.48-.92-1.15-1.65-2.01-2.18-.86-.53-1.86-.8-2.99-.8s-2.14.26-2.99.78c-.86.52-1.53,1.24-2.03,2.16-.49.92-.74,1.99-.74,3.2s.25,2.29.74,3.22c.49.94,1.18,1.66,2.05,2.18.87.52,1.86.78,2.98.78ZM320.44,225.3h-3.45v-4.85l.64-4.4-.64-4.36v-13.45h3.45v27.06Z"/>
      </g>
    </g>
  </g>
</svg>