<svg width="200" height="200" viewBox="0 0 200 200" fill="none" xmlns="http://www.w3.org/2000/svg">
<g clip-path="url(#clip0_852_5142)">
<rect width="200" height="200" fill="white"/>
<circle cx="100" cy="100" r="100" fill="#FEF5EA"/>
<g clip-path="url(#clip1_852_5142)">
<path d="M113.999 89.0995C112.632 89.0995 110.614 89.2918 108.739 90.3733C108.309 90.6137 107.984 90.854 107.762 91.0342C107.619 91.1424 107.528 91.2265 107.489 91.2626L107.476 91.2746C107.385 91.3587 104.624 92.5844 97.7882 95.5765C96.6684 95.9611 95.2882 96.3576 93.6736 96.646C92.0199 96.9344 90.5485 97.0426 89.3115 97.0546C87.762 95.5645 86.4079 94.4229 85.4703 93.6539C82.8531 91.5269 81.1474 90.3733 78.5953 87.8138C78.2828 87.5013 77.9833 87.1649 77.6447 86.7683C77.0458 86.0593 74.4806 82.923 74.0119 78.5129C73.8296 76.7464 73.6343 74.5834 75.2489 73.4058C76.5379 72.4685 78.3218 72.6127 79.064 72.7208C79.7541 73.1775 80.5484 73.7783 81.3297 74.5594C81.8896 75.1121 82.3323 75.6529 82.6969 76.1456C83.6344 76.8666 85.0537 77.9601 86.8115 79.2579C93.1788 83.9564 96.434 86.3237 99.7153 87.0447C102.124 87.5734 102.137 87.0207 107.124 87.7417C110.054 88.1623 112.424 88.691 113.999 89.0875V89.0995Z" fill="black"/>
<path d="M23.9332 85.3624C23.9332 84.6894 23.8941 83.8242 23.7639 82.7908C23.5816 82.6706 23.2952 82.4664 23.0087 82.1659C22.0712 81.2046 22.2795 80.6518 21.4462 79.3781C21.1207 78.8734 20.7821 78.5609 20.1311 77.9481C19.0633 76.9387 18.7769 76.9507 17.8524 76.1095C17.3836 75.6649 16.8758 75.0881 16.3289 74.2109C15.4044 72.7328 15.5477 72.3123 14.5711 71.2548C14.1284 70.7741 12.9565 69.5484 10.9382 68.9115C8.15174 68.0343 5.6517 68.8875 4.97461 69.1399C5.23503 69.8849 5.62566 70.7741 6.22463 71.7355C6.71943 72.5166 7.24027 73.1775 7.70902 73.7062C7.99548 74.3431 8.47726 75.3645 9.20644 76.5662C9.83145 77.5996 10.4044 78.3807 10.9513 79.0416C13.5815 82.1659 14.6492 82.4423 16.381 85.098C17.1493 86.2877 16.9149 86.2396 17.618 87.225C19.0243 89.1957 20.8212 90.5416 21.8889 91.3347C22.4749 91.7673 22.9696 92.1037 23.3082 92.32C23.178 91.7913 23.0478 90.9862 23.1389 90.0249C23.165 89.7725 23.191 89.5682 23.2301 89.388C23.2952 89.0996 23.3603 88.8592 23.4124 88.667C23.5296 88.2704 23.6337 87.8859 23.7509 87.4893C23.9202 86.9125 23.9202 86.3958 23.9072 85.3624H23.9332Z" fill="black"/>
<path d="M38.5032 43.5443C40.3001 44.71 40.9121 46.4404 41.4981 48.0626C41.9017 49.1922 42.1101 49.757 42.058 50.4539C41.9929 51.4273 41.5762 52.1843 39.8184 54.3954C37.9433 56.7387 37.6829 56.7987 36.8626 57.9523C35.7298 59.5506 35.5345 60.4398 34.6881 62.2303C33.0735 65.667 32.0839 66.0636 30.7818 68.539C29.5708 70.8222 29.2583 73.2736 28.6463 78.1644C27.9172 83.9204 28.6463 83.5959 27.9172 87.982C27.5526 90.145 27.1099 91.8153 27.5396 93.9783C27.6437 94.483 27.8651 95.3963 27.8911 96.6941C27.9172 97.9078 27.7609 98.9172 27.6177 99.5901C26.3286 97.8597 24.7531 95.204 24.3885 91.8273C24.3754 91.6831 24.3234 91.0222 24.3494 90.133C24.4145 88.4867 24.727 87.297 24.7921 87.0207C25.2088 85.3263 25.1307 81.4569 23.3598 68.9836C23.1384 67.4455 22.9692 66.2679 23.2687 64.6697C23.6593 62.6388 24.4145 62.062 26.2765 58.5171C27.9823 55.2846 27.6177 55.2486 29.1542 52.5328C30.4432 50.2617 30.3521 50.8865 32.4485 47.5098C34.4667 44.2653 35.0787 42.8354 36.4199 42.7392C37.1491 42.6791 37.722 43.0517 38.4772 43.5443H38.5032Z" fill="black"/>
<path d="M42.8796 53.9989C39.7024 56.955 37.9576 60.0192 37.8795 60.1514C35.1972 64.8379 34.7024 64.5976 33.0357 67.5897C30.0148 73.0092 29.7413 78.4888 29.2465 88.2945C28.8559 96.0212 29.8325 96.8864 29.4288 100.299C29.3768 100.696 29.2465 101.777 29.6893 103.051C30.119 104.289 30.9263 105.19 32.2804 106.404C34.3247 108.23 35.692 109.047 37.4368 110.321C40.4316 112.508 39.7415 112.544 42.3196 114.419C46.4994 117.447 50.2104 118.745 51.1219 119.045C53.1662 119.718 54.937 120.079 56.2131 120.271C55.6922 119.021 54.8068 117.171 53.3745 115.104C51.5125 112.424 49.6895 110.742 48.8953 109.973C43.6087 104.865 41.0696 98.2082 40.8613 97.6314C37.8534 89.5202 39.9759 82.0458 40.3925 80.5797C41.5514 76.4821 43.2962 74.3551 43.9994 70.6179C44.1556 69.7768 44.403 68.1545 45.6791 66.5443C46.0437 66.0876 46.0697 66.1597 47.5411 64.5375C48.9604 62.9633 49.351 62.4466 49.6114 61.7256C49.8718 60.9926 49.8718 60.4158 49.8718 59.7308C49.8718 58.9377 49.8198 56.6545 48.114 54.4795C47.3848 53.5422 46.7468 52.7251 45.7181 52.653C44.5723 52.5689 43.6087 53.374 42.8926 54.0349L42.8796 53.9989Z" fill="black"/>
<path d="M51.9682 64.7418C50.64 64.7898 49.6895 65.8713 48.8822 66.7846C48.4395 67.2893 48.0619 67.818 47.0723 69.7527C45.7702 72.3123 44.9368 74.295 44.7415 74.7757C44.3769 75.6649 44.3118 75.8572 43.4915 77.9841C42.4108 80.784 41.7207 82.4784 41.6165 82.7548C39.1034 89.9287 42.9576 103.051 50.8354 110.417C51.9942 111.499 54.2599 113.421 56.2912 116.726C58.1792 119.814 58.3485 121.653 59.1167 123.275C61.76 128.803 70.9138 130.521 78.5962 131.963C90.276 134.162 92.9193 132.191 107.594 134.643C113.011 135.544 116.019 136.061 119.951 137.659C126.683 140.387 130.876 144.124 135.784 148.51C140.85 153.028 143.727 155.6 146.318 159.962C150.954 167.761 150.147 172.123 153.389 172.904C156.384 173.625 157.451 169.888 168.207 163.531C171.775 161.416 174.678 160.058 177.79 156.717C178.363 156.105 180.707 153.593 181.566 151.49C183.962 145.638 175.863 140.17 166.215 127.865C154.014 112.328 153.779 106.416 143.259 100.407C141.253 99.2657 138.597 98.088 133.271 95.7448C118.636 89.2918 115.068 89.3399 112.672 89.7965C109.065 90.4815 109.821 91.7432 103.779 94.3268C98.8569 96.4177 92.4375 99.1575 85.7577 97.8837C79.6899 96.7301 78.8566 93.714 70.7184 92.5243C69.3122 92.32 67.7627 92.1758 63.6741 92.2359C61.4735 92.272 58.5698 92.3561 55.1193 92.5964C56.3432 93.6419 58.036 95.2881 59.4813 97.6194C60.8225 99.7704 60.4839 100.083 61.4865 101.26C63.5569 103.688 65.7705 102.799 69.6507 105.574C71.7601 107.077 72.8148 108.567 73.2445 109.215C74.5336 111.186 74.9763 113.157 74.781 113.217C74.5857 113.289 73.8956 111.21 71.7211 108.879C70.3018 107.353 68.8955 106.428 68.0622 105.887C64.7678 103.736 63.7913 104.265 61.5256 102.787C58.9995 101.14 60.0022 100.335 55.9917 95.4924C53.4656 92.4402 52.2807 91.8033 52.0984 89.9407C51.9552 88.4146 52.6843 88.2704 53.4135 85.3504C54.2989 81.8295 53.4135 81.4089 54.2338 78.597C55.2104 75.3284 56.5255 75.5568 56.9292 72.877C56.9943 72.4444 57.4761 68.9356 54.963 66.352C54.4031 65.7752 53.3354 64.6697 51.9421 64.7297L51.9682 64.7418Z" fill="black"/>
</g>
</g>
<defs>
<clipPath id="clip0_852_5142">
<rect width="200" height="200" fill="white"/>
</clipPath>
<clipPath id="clip1_852_5142">
<rect width="189" height="147" fill="white" transform="translate(5 26)"/>
</clipPath>
</defs>
</svg>
