<svg width="200" height="200" viewBox="0 0 200 200" fill="none" xmlns="http://www.w3.org/2000/svg">
<g clip-path="url(#clip0_852_5142)">
<rect width="200" height="200" fill="white"/>
<circle cx="100" cy="100" r="100" fill="#FEF5EA"/>
<g clip-path="url(#clip1_852_5142)">
<path d="M101.084 107.651C99.9917 107.651 98.3792 107.806 96.8812 108.674C96.5379 108.867 96.2778 109.06 96.101 109.204C95.9865 109.291 95.9137 109.359 95.8825 109.388L95.8721 109.397C95.7993 109.465 93.5938 110.449 88.1322 112.851C87.2376 113.159 86.1349 113.478 84.8449 113.709C83.5237 113.941 82.3482 114.027 81.3599 114.037C80.1219 112.841 79.04 111.925 78.291 111.307C76.2 109.6 74.8372 108.674 72.7982 106.619C72.5485 106.368 72.3092 106.098 72.0388 105.78C71.5602 105.211 69.5108 102.693 69.1363 99.1532C68.9907 97.7352 68.8346 95.9989 70.1246 95.0536C71.1545 94.3012 72.5797 94.417 73.1727 94.5038C73.7241 94.8703 74.3586 95.3526 74.9828 95.9796C75.4301 96.4233 75.7839 96.8574 76.0751 97.2529C76.8242 97.8317 77.9581 98.7094 79.3625 99.7512C84.4496 103.523 87.0503 105.423 89.6719 106.002C91.5964 106.426 91.6069 105.983 95.5912 106.561C97.9319 106.899 99.8252 107.323 101.084 107.642V107.651Z" fill="black"/>
<path d="M29.1253 104.651C29.1253 104.111 29.0941 103.417 28.9901 102.587C28.8444 102.491 28.6156 102.327 28.3867 102.086C27.6377 101.314 27.8041 100.87 27.1384 99.8477C26.8783 99.4426 26.6078 99.1918 26.0876 98.6998C25.2346 97.8896 25.0057 97.8992 24.2671 97.224C23.8926 96.8671 23.4869 96.4041 23.05 95.6999C22.3113 94.5135 22.4258 94.1759 21.6456 93.327C21.2918 92.9412 20.3556 91.9573 18.7431 91.446C16.5169 90.7419 14.5195 91.4267 13.9785 91.6293C14.1866 92.2274 14.4987 92.9412 14.9772 93.7128C15.3725 94.3398 15.7886 94.8704 16.1632 95.2948C16.392 95.806 16.7769 96.626 17.3595 97.5906C17.8588 98.4201 18.3166 99.0471 18.7535 99.5776C20.8549 102.086 21.708 102.307 23.0916 104.439C23.7054 105.394 23.5181 105.356 24.0799 106.147C25.2034 107.729 26.639 108.809 27.4921 109.446C27.9602 109.793 28.3555 110.063 28.626 110.237C28.522 109.812 28.4179 109.166 28.4907 108.394C28.5116 108.192 28.5324 108.028 28.5636 107.883C28.6156 107.651 28.6676 107.458 28.7092 107.304C28.8028 106.986 28.8861 106.677 28.9797 106.359C29.1149 105.896 29.1149 105.481 29.1045 104.651H29.1253Z" fill="black"/>
<path d="M40.7672 71.0832C42.2028 72.0189 42.6917 73.4079 43.1599 74.7101C43.4824 75.6169 43.6488 76.0702 43.6072 76.6297C43.5552 77.411 43.2223 78.0187 41.8179 79.7936C40.3198 81.6746 40.1118 81.7228 39.4564 82.6488C38.5513 83.9317 38.3953 84.6455 37.7191 86.0828C36.4291 88.8416 35.6385 89.1599 34.5982 91.147C33.6307 92.9797 33.381 94.9475 32.8921 98.8734C32.3095 103.494 32.8921 103.233 32.3095 106.754C32.0182 108.491 31.6645 109.831 32.0078 111.568C32.091 111.973 32.2679 112.706 32.2887 113.748C32.3095 114.722 32.1847 115.532 32.0702 116.072C31.0403 114.683 29.7816 112.552 29.4903 109.841C29.4799 109.725 29.4383 109.195 29.4591 108.481C29.5111 107.159 29.7608 106.204 29.8128 105.983C30.1457 104.622 30.0833 101.516 28.6684 91.5039C28.4916 90.2692 28.3563 89.3239 28.5956 88.0409C28.9077 86.4108 29.5111 85.9478 30.9987 83.1022C32.3615 80.5074 32.0702 80.4785 33.2978 78.2985C34.3277 76.4754 34.2549 76.9769 35.9298 74.2664C37.5422 71.662 38.0312 70.5141 39.1027 70.4369C39.6852 70.3887 40.143 70.6877 40.7464 71.0832H40.7672Z" fill="black"/>
<path d="M44.2622 79.4753C41.7238 81.8482 40.3298 84.3079 40.2674 84.4141C38.1244 88.176 37.7291 87.9831 36.3975 90.385C33.984 94.7353 33.7655 99.1339 33.3702 107.005C33.0581 113.207 33.8383 113.902 33.5158 116.641C33.4742 116.96 33.3702 117.828 33.7239 118.85C34.0672 119.844 34.7122 120.567 35.7941 121.542C37.4274 123.008 38.5197 123.664 39.9137 124.686C42.3064 126.442 41.755 126.471 43.8148 127.976C47.1542 130.406 50.1191 131.448 50.8473 131.689C52.4806 132.229 53.8954 132.519 54.9149 132.673C54.4987 131.67 53.7913 130.185 52.647 128.525C51.1594 126.374 49.7029 125.024 49.0684 124.407C44.8447 120.307 42.8161 114.963 42.6497 114.5C40.2466 107.989 41.9423 101.989 42.2752 100.812C43.2011 97.523 44.5951 95.8157 45.1568 92.8158C45.2817 92.1405 45.4793 90.8383 46.4988 89.5457C46.7901 89.1792 46.8109 89.2371 47.9864 87.9349C49.1204 86.6712 49.4325 86.2564 49.6405 85.6777C49.8486 85.0893 49.8486 84.6263 49.8486 84.0764C49.8486 83.4398 49.807 81.6071 48.4442 79.8611C47.8616 79.1087 47.3519 78.4528 46.53 78.3949C45.6146 78.3274 44.8447 78.9737 44.2726 79.5042L44.2622 79.4753Z" fill="black"/>
<path d="M51.5226 88.0988C50.4614 88.1374 49.702 89.0055 49.057 89.7386C48.7033 90.1438 48.4016 90.5682 47.611 92.1212C46.5707 94.1758 45.9049 95.7674 45.7489 96.1533C45.4576 96.8671 45.4056 97.0214 44.7502 98.7287C43.8867 100.976 43.3354 102.336 43.2521 102.558C41.2444 108.317 44.3237 118.85 50.6175 124.763C51.5434 125.632 53.3535 127.175 54.9764 129.828C56.4848 132.307 56.62 133.782 57.2338 135.085C59.3456 139.522 66.659 140.901 72.7968 142.059C82.1283 143.824 84.2401 142.242 95.9643 144.21C100.292 144.933 102.695 145.348 105.837 146.631C111.215 148.821 114.565 151.821 118.487 155.341C122.534 158.968 124.833 161.033 126.903 164.534C130.606 170.794 129.961 174.296 132.552 174.923C134.944 175.502 135.798 172.502 144.39 167.399C147.241 165.701 149.561 164.611 152.047 161.93C152.505 161.438 154.377 159.422 155.064 157.734C156.978 153.036 150.507 148.647 142.799 138.769C133.051 126.297 132.864 121.551 124.458 116.728C122.856 115.812 120.734 114.867 116.479 112.986C104.786 107.806 101.936 107.844 100.021 108.211C97.1398 108.761 97.7432 109.773 92.9162 111.847C88.9839 113.526 83.8552 115.725 78.5184 114.703C73.6706 113.777 73.0048 111.355 66.5029 110.4C65.3794 110.236 64.1414 110.121 60.8749 110.169C59.1168 110.198 56.7969 110.265 54.0401 110.458C55.018 111.298 56.3704 112.619 57.5251 114.49C58.5966 116.217 58.3261 116.468 59.1272 117.413C60.7813 119.362 62.5498 118.648 65.6499 120.876C67.3352 122.082 68.1778 123.278 68.5211 123.799C69.551 125.381 69.9047 126.963 69.7487 127.011C69.5926 127.069 69.0413 125.4 67.304 123.529C66.17 122.304 65.0465 121.561 64.3807 121.127C61.7487 119.4 60.9685 119.825 59.1584 118.638C57.1402 117.317 57.9412 116.67 54.7371 112.783C52.7189 110.333 51.7722 109.822 51.6266 108.327C51.5121 107.102 52.0947 106.986 52.6773 104.642C53.3847 101.815 52.6773 101.478 53.3327 99.2207C54.1129 96.597 55.1636 96.7802 55.4861 94.6292C55.5381 94.2819 55.923 91.4653 53.9152 89.3914C53.4679 88.9284 52.6149 88.0409 51.5017 88.0892L51.5226 88.0988Z" fill="black"/>
<path d="M60.668 99.7319V57H82.3583V60.4147H64.4339V77.3628H80.2881V80.7775H64.4339V99.7319H60.668Z" fill="black"/>
<path d="M93.5415 57V96.3173H112.558V99.7319H89.9004V57H93.5519H93.5415Z" fill="black"/>
<path d="M136.204 57H146.836C159.351 57 164.999 63.5786 164.999 78.0862C164.999 92.5939 159.049 99.7319 146.648 99.7319H136.193V57H136.204ZM139.855 96.2594H146.846C156.386 96.2594 161.244 91.8704 161.244 78.5782C161.244 65.2859 156.074 60.4726 146.482 60.4726H139.866V96.2594H139.855Z" fill="black"/>
<path d="M122.566 57C124.324 57 125.645 58.1961 125.645 59.7974C125.645 61.3986 124.324 62.5368 122.566 62.5368C120.808 62.5368 119.549 61.3407 119.549 59.7974C119.549 58.254 120.87 57 122.566 57ZM121.057 68.9804H124.698V99.7319H121.057V68.9804Z" fill="black"/>
</g>
</g>
<defs>
<clipPath id="clip0_852_5142">
<rect width="200" height="200" fill="white"/>
</clipPath>
<clipPath id="clip1_852_5142">
<rect width="151" height="118" fill="white" transform="translate(14 57)"/>
</clipPath>
</defs>
</svg>
