<svg width="221" height="164" viewBox="0 0 221 164" fill="none" xmlns="http://www.w3.org/2000/svg">
<path d="M136.104 58.411C134.397 58.411 131.877 58.6529 129.536 60.014C128.999 60.3165 128.593 60.6189 128.316 60.8458C128.137 60.9819 128.024 61.0878 127.975 61.1331L127.959 61.1482C127.845 61.2541 124.398 62.7967 115.862 66.5623C114.464 67.0462 112.74 67.5453 110.724 67.9082C108.659 68.2712 106.822 68.4073 105.277 68.4224C103.342 66.5472 101.652 65.1105 100.481 64.1426C97.2128 61.4658 95.0829 60.014 91.8961 56.7928C91.5059 56.3996 91.1319 55.9762 90.7092 55.4771C89.9613 54.5849 86.7582 50.6377 86.1729 45.0876C85.9453 42.8645 85.7014 40.1424 87.7175 38.6603C89.3272 37.4807 91.5547 37.6622 92.4814 37.7983C93.3431 38.373 94.3349 39.1291 95.3105 40.1121C96.0096 40.8078 96.5624 41.4883 97.0177 42.1084C98.1883 43.0157 99.9606 44.3919 102.156 46.0252C110.106 51.9383 114.171 54.9176 118.268 55.8249C121.276 56.4904 121.292 55.7947 127.52 56.7021C131.178 57.2314 134.137 57.8968 136.104 58.3959V58.411Z" fill="black"/>
<path d="M23.6406 53.7077C23.6406 52.8608 23.5919 51.772 23.4293 50.4714C23.2016 50.3202 22.8439 50.0631 22.4862 49.685C21.3156 48.4752 21.5757 47.7795 20.5352 46.1765C20.1287 45.5413 19.7059 45.1481 18.893 44.3768C17.5598 43.1065 17.2021 43.1216 16.0477 42.063C15.4623 41.5034 14.8282 40.7775 14.1454 39.6736C12.991 37.8134 13.1698 37.2841 11.9504 35.9533C11.3976 35.3484 9.93426 33.8058 7.41411 33.0043C3.93467 31.9003 0.812938 32.9741 -0.0325317 33.2916C0.292649 34.2293 0.78042 35.3484 1.52834 36.5582C2.14618 37.5412 2.79654 38.373 3.38187 39.0384C3.73957 39.8399 4.34115 41.1254 5.25166 42.6377C6.03209 43.9383 6.74749 44.9213 7.43037 45.753C10.7147 49.685 12.0479 50.0328 14.2104 53.375C15.1697 54.8722 14.877 54.8117 15.755 56.0518C17.511 58.532 19.7547 60.2258 21.088 61.2239C21.8196 61.7683 22.4375 62.1917 22.8602 62.464C22.6976 61.7985 22.535 60.7853 22.6488 59.5755C22.6814 59.2579 22.7139 59.0008 22.7626 58.7739C22.8439 58.411 22.9252 58.1085 22.9903 57.8666C23.1366 57.3675 23.2667 56.8836 23.413 56.3845C23.6244 55.6586 23.6244 55.0083 23.6081 53.7077H23.6406Z" fill="black"/>
<path d="M41.8345 1.07961C44.0783 2.54654 44.8424 4.72426 45.5741 6.76587C46.0781 8.18743 46.3383 8.89821 46.2732 9.77535C46.1919 11.0003 45.6717 11.9531 43.4767 14.7357C41.1354 17.6847 40.8102 17.7603 39.7859 19.2121C38.3713 21.2235 38.1275 22.3426 37.0706 24.5959C35.0545 28.9211 33.8188 29.4202 32.1929 32.5355C30.6808 35.4089 30.2906 38.494 29.5264 44.649C28.6159 51.893 29.5264 51.4847 28.6159 57.0046C28.1607 59.7267 27.6079 61.8288 28.1444 64.5509C28.2745 65.1861 28.5509 66.3355 28.5834 67.9688C28.6159 69.4962 28.4208 70.7665 28.242 71.6134C26.6323 69.4357 24.665 66.0935 24.2097 61.8439C24.1935 61.6625 24.1284 60.8307 24.1609 59.7116C24.2422 57.6397 24.6325 56.1425 24.7137 55.7947C25.234 53.6624 25.1365 48.7928 22.9253 33.0951C22.6489 31.1593 22.4375 29.6772 22.8114 27.6659C23.2992 25.1101 24.2422 24.3842 26.5673 19.9229C28.6972 15.8548 28.242 15.8094 30.1605 12.3916C31.7702 9.53338 31.6564 10.3198 34.2741 6.0702C36.7942 1.98699 37.5584 0.187347 39.2331 0.0663631C40.1436 -0.00925206 40.859 0.459562 41.802 1.07961H41.8345Z" fill="black"/>
<path d="M47.2975 14.2366C43.3303 17.9569 41.1516 21.8133 41.0541 21.9796C37.7047 27.8776 37.0868 27.5752 35.0057 31.3408C31.2336 38.1613 30.8922 45.0574 30.2743 57.3978C29.7865 67.1219 31.006 68.2107 30.5019 72.5057C30.4369 73.0047 30.2743 74.3658 30.8271 75.9689C31.3637 77.5265 32.3717 78.6608 34.0627 80.1882C36.6153 82.4869 38.3225 83.5152 40.5012 85.1183C44.2408 87.8707 43.3791 87.916 46.5984 90.2752C51.8175 94.0862 56.4514 95.7195 57.5895 96.0976C60.1422 96.9445 62.3534 97.3982 63.9468 97.6401C63.2964 96.0674 62.1908 93.7384 60.4023 91.1372C58.0773 87.7648 55.801 85.6476 54.8092 84.6797C48.208 78.2524 45.0375 69.8743 44.7774 69.1484C41.0215 58.9403 43.6718 49.5338 44.192 47.6888C45.6391 42.5318 47.8178 39.8551 48.6958 35.1518C48.8909 34.0932 49.1998 32.0516 50.7932 30.0251C51.2485 29.4504 51.281 29.5412 53.1183 27.4995C54.8905 25.5184 55.3783 24.8681 55.7034 23.9608C56.0286 23.0383 56.0286 22.3123 56.0286 21.4503C56.0286 20.4522 55.9636 17.5788 53.8337 14.8416C52.9232 13.662 52.1265 12.6336 50.842 12.5429C49.4112 12.437 48.208 13.4503 47.3138 14.282L47.2975 14.2366Z" fill="black"/>
<path d="M58.6464 27.7566C56.9879 27.8171 55.801 29.1782 54.793 30.3275C54.2402 30.9627 53.7687 31.6281 52.533 34.0629C50.9071 37.2841 49.8665 39.7794 49.6226 40.3843C49.1673 41.5034 49.0861 41.7454 48.0617 44.4222C46.7122 47.9458 45.8505 50.0782 45.7204 50.426C42.5824 59.4545 47.3951 75.9688 57.2318 85.2392C58.6789 86.6003 61.508 89.02 64.0444 93.1788C66.4019 97.0654 66.6133 99.3793 67.5726 101.421C70.8732 108.377 82.3033 110.54 91.8961 112.355C106.48 115.122 109.781 112.642 128.105 115.727C134.869 116.861 138.625 117.512 143.535 119.523C151.941 122.956 157.176 127.659 163.306 133.179C169.631 138.865 173.224 142.102 176.459 147.591C182.248 157.406 181.24 162.896 185.288 163.879C189.028 164.786 190.361 160.083 203.791 152.083C208.246 149.421 211.872 147.712 215.757 143.508C216.473 142.737 219.4 139.576 220.473 136.93C223.464 129.565 213.351 122.684 201.303 107.198C186.068 87.6438 185.776 80.2033 172.639 72.6418C170.135 71.2051 166.818 69.723 160.168 66.774C141.893 58.653 137.438 58.7134 134.446 59.2881C129.942 60.1501 130.885 61.7381 123.341 64.9895C117.195 67.6209 109.179 71.069 100.839 69.4659C93.2619 68.0141 92.2213 64.2182 82.0594 62.7211C80.3034 62.464 78.3686 62.2825 73.2633 62.3581C70.5155 62.4035 66.8897 62.5093 62.5811 62.8118C64.1094 64.1275 66.2231 66.1993 68.0278 69.1332C69.7025 71.8402 69.2798 72.2334 70.5317 73.7155C73.1169 76.7703 75.881 75.6512 80.7262 79.1447C83.3601 81.035 84.6771 82.9103 85.2136 83.7269C86.8233 86.2071 87.3761 88.6873 87.1322 88.7629C86.8883 88.8536 86.0266 86.2374 83.3113 83.3035C81.5391 81.3829 79.7831 80.2184 78.7425 79.5379C74.629 76.8308 73.4096 77.4963 70.5805 75.6361C67.4263 73.5643 68.6782 72.551 63.6704 66.4564C60.5162 62.6152 59.0366 61.8137 58.809 59.4696C58.6301 57.549 59.5406 57.3675 60.4511 53.6926C61.5567 49.2616 60.4511 48.7323 61.4754 45.1935C62.6949 41.08 64.337 41.3673 64.8411 37.9949C64.9224 37.4505 65.5239 33.0345 62.3859 29.7831C61.6868 29.0572 60.3536 27.6659 58.6138 27.7415L58.6464 27.7566Z" fill="black"/>
</svg>
