<svg width="379" height="100" viewBox="0 0 379 100" fill="none" xmlns="http://www.w3.org/2000/svg">
<path d="M2.5 15C2.5 8.09644 8.09644 2.5 15 2.5H311.514C329.464 2.5 344.014 17.0507 344.014 35V76C344.014 83.4558 337.97 89.5 330.514 89.5H35C17.0507 89.5 2.5 74.9493 2.5 57V15Z" stroke="#8E92DA" stroke-width="5"/>
<path d="M250.455 64.3333V58.3993H257.98C259.815 58.3993 261.42 58.041 262.796 57.3243C264.172 56.579 265.233 55.504 265.978 54.0993C266.723 52.6947 267.096 51.032 267.096 49.1113C267.096 47.1907 266.709 45.5423 265.935 44.1663C265.19 42.7903 264.129 41.7297 262.753 40.9843C261.406 40.239 259.815 39.8663 257.98 39.8663H250.24V33.9753H258.066C260.359 33.9753 262.466 34.348 264.387 35.0933C266.336 35.81 268.028 36.8563 269.461 38.2323C270.923 39.5797 272.041 41.185 272.815 43.0483C273.618 44.883 274.019 46.9183 274.019 49.1543C274.019 51.3617 273.618 53.397 272.815 55.2603C272.041 57.1237 270.937 58.729 269.504 60.0763C268.071 61.4237 266.379 62.47 264.43 63.2153C262.509 63.9607 260.417 64.3333 258.152 64.3333H250.455ZM245.897 64.3333V33.9753H252.648V64.3333H245.897Z" fill="#ADB3EA"/>
<path d="M212.001 64.3333V33.9753H216.731L218.752 40.0383V64.3333H212.001ZM232.942 64.3333L215.054 41.4143L216.731 33.9753L234.619 56.8943L232.942 64.3333ZM232.942 64.3333L231.136 58.2703V33.9753H237.887V64.3333H232.942Z" fill="#ADB3EA"/>
<path d="M183.396 64.3333V33.9753H190.147V64.3333H183.396ZM188.556 64.3333V58.4853H205.197V64.3333H188.556ZM188.556 51.6483V46.0153H203.692V51.6483H188.556ZM188.556 39.7803V33.9753H204.982V39.7803H188.556Z" fill="#ADB3EA"/>
<path d="M165.292 64.8063C162.798 64.8063 160.648 64.405 158.842 63.6023C157.065 62.771 155.431 61.524 153.94 59.8613L158.326 55.5183C159.301 56.6363 160.376 57.5107 161.551 58.1413C162.755 58.7433 164.146 59.0443 165.722 59.0443C167.156 59.0443 168.259 58.7863 169.033 58.2703C169.836 57.7543 170.237 57.0377 170.237 56.1203C170.237 55.289 169.979 54.6153 169.463 54.0993C168.947 53.5833 168.259 53.139 167.399 52.7663C166.568 52.3937 165.636 52.0353 164.604 51.6913C163.601 51.3473 162.598 50.9603 161.594 50.5303C160.591 50.0717 159.659 49.5127 158.799 48.8533C157.968 48.1653 157.294 47.3197 156.778 46.3163C156.262 45.2843 156.004 43.9943 156.004 42.4463C156.004 40.583 156.449 38.9777 157.337 37.6303C158.255 36.283 159.516 35.2653 161.121 34.5773C162.727 33.8607 164.576 33.5023 166.668 33.5023C168.79 33.5023 170.725 33.875 172.473 34.6203C174.251 35.3657 175.713 36.3833 176.859 37.6733L172.473 42.0163C171.556 41.0703 170.624 40.368 169.678 39.9093C168.761 39.4507 167.715 39.2213 166.539 39.2213C165.364 39.2213 164.432 39.4507 163.744 39.9093C163.056 40.3393 162.712 40.97 162.712 41.8013C162.712 42.5753 162.97 43.206 163.486 43.6933C164.002 44.152 164.676 44.5533 165.507 44.8973C166.367 45.2413 167.299 45.5853 168.302 45.9293C169.334 46.2733 170.352 46.6747 171.355 47.1333C172.359 47.592 173.276 48.1797 174.107 48.8963C174.967 49.5843 175.655 50.473 176.171 51.5623C176.687 52.623 176.945 53.9417 176.945 55.5183C176.945 58.4137 175.913 60.6927 173.849 62.3553C171.785 63.9893 168.933 64.8063 165.292 64.8063Z" fill="#ADB3EA"/>
<path d="M126.166 64.3333V58.3993H133.691C135.526 58.3993 137.131 58.041 138.507 57.3243C139.883 56.579 140.944 55.504 141.689 54.0993C142.435 52.6947 142.807 51.032 142.807 49.1113C142.807 47.1907 142.42 45.5423 141.646 44.1663C140.901 42.7903 139.84 41.7297 138.464 40.9843C137.117 40.239 135.526 39.8663 133.691 39.8663H125.951V33.9753H133.777C136.071 33.9753 138.178 34.348 140.098 35.0933C142.048 35.81 143.739 36.8563 145.172 38.2323C146.634 39.5797 147.752 41.185 148.526 43.0483C149.329 44.883 149.73 46.9183 149.73 49.1543C149.73 51.3617 149.329 53.397 148.526 55.2603C147.752 57.1237 146.649 58.729 145.215 60.0763C143.782 61.4237 142.091 62.47 140.141 63.2153C138.221 63.9607 136.128 64.3333 133.863 64.3333H126.166ZM121.608 64.3333V33.9753H128.359V64.3333H121.608Z" fill="#ADB3EA"/>
<path d="M87.7123 64.3333V33.9753H92.4423L94.4633 40.0383V64.3333H87.7123ZM108.653 64.3333L90.7653 41.4143L92.4423 33.9753L110.33 56.8943L108.653 64.3333ZM108.653 64.3333L106.847 58.2703V33.9753H113.598V64.3333H108.653Z" fill="#ADB3EA"/>
<path d="M72.9646 64.3333V33.9753H79.7156V64.3333H72.9646Z" fill="#ADB3EA"/>
</svg>
